<?xml version="1.0" encoding="UTF-8"?>
<svg width="30px" height="30px" viewBox="0 0 30 30" version="1.1" xmlns="http://www.w3.org/2000/svg" xmlns:xlink="http://www.w3.org/1999/xlink">
    <!-- Generator: Sketch 41 (35326) - http://www.bohemiancoding.com/sketch -->
    <title>icon-flask</title>
    <desc>Created with Sketch.</desc>
    <defs></defs>
    <g id="Page-3" stroke="none" stroke-width="1" fill="none" fill-rule="evenodd" opacity="0.800000012">
        <g id="002-space" transform="translate(-1622.000000, -62.000000)" fill="#000000">
            <g id="Group-3" transform="translate(1622.000000, 62.000000)">
                <g id="Group">
                    <path d="M23.5679093,21.0111379 L19.3316307,14.6484025 C18.720805,13.7309453 18.3951597,12.6586908 18.3951597,11.5628392 L18.3951597,8.14785974 C18.3951597,7.4371136 18.6215699,6.68106093 18.9847896,6.06564727 C19.2651528,5.59276039 18.9163848,5 18.3585487,5 L12.6414513,5 C12.0836152,5 11.7348472,5.59276039 12.0152104,6.06564727 C12.3784301,6.68106093 12.6048403,7.4371136 12.6048403,8.14785974 L12.6048403,11.5628392 C12.6048403,12.6586908 12.279195,13.7309453 11.6683693,14.6484025 L7.43209069,21.0111379 C6.28944197,22.7271226 7.54674095,25 9.63742201,25 L21.362578,25 C23.4532591,25 24.710558,22.7271226 23.5679093,21.0111379 L23.5679093,21.0111379 Z M21.4020793,23.7786115 L9.59792066,23.7786115 C8.51500568,23.7786115 7.86275172,22.6034735 8.45045469,21.713389 L12.6876968,15.2911888 C13.4324417,14.1623012 13.8284186,12.847468 13.8284186,11.5033744 L13.8284186,6.87550144 C13.8284186,6.51210534 14.1299777,6.21666903 14.5009049,6.21666903 L16.4778992,6.21666903 C16.8497899,6.21666903 17.1503856,6.51210534 17.1503856,6.87550144 L17.1503856,11.4722262 C17.1503856,12.8163198 17.5463625,14.1320968 18.2920708,15.2600406 L22.5495453,21.713389 C23.1372483,22.6034735 22.4849943,23.7786115 21.4020793,23.7786115 L21.4020793,23.7786115 Z M20.6322848,22.582708 L10.3619345,22.582708 C9.93416383,22.582708 9.67595991,22.1202039 9.9071873,21.7681344 L12.6318168,17.6093728 C12.7628457,17.4102128 12.96806,17.2724055 13.2041046,17.2214357 C13.4941023,17.1591392 13.81204,17.1147765 14.1396121,17.1147765 C15.2687726,17.1147765 15.9142824,17.5036576 16.9085602,17.5036576 C17.536728,17.5036576 17.5049342,17.4526877 17.8199816,17.4149323 C18.0521724,17.3875596 18.2833998,17.4894993 18.4096114,17.682052 L21.087032,21.7681344 C21.317296,22.1202039 21.0600555,22.582708 20.6322848,22.582708 L20.6322848,22.582708 Z" id="flask"></path>
                </g>
            </g>
        </g>
    </g>
</svg>