<?xml version="1.0" encoding="UTF-8"?>
<svg width="30px" height="30px" viewBox="0 0 30 30" version="1.1" xmlns="http://www.w3.org/2000/svg" xmlns:xlink="http://www.w3.org/1999/xlink">
    <!-- Generator: Sketch 41 (35326) - http://www.bohemiancoding.com/sketch -->
    <title>icon-text</title>
    <desc>Created with Sketch.</desc>
    <defs></defs>
    <g id="Page-3" stroke="none" stroke-width="1" fill="none" fill-rule="evenodd" opacity="0.800000012">
        <g id="002-space" transform="translate(-1726.000000, -62.000000)" fill="#000000">
            <g id="Group-3" transform="translate(1622.000000, 62.000000)">
                <g id="Group">
                    <path d="M111,6.20956904 L111,23.790431 C111,24.4588299 111.572311,25 112.277057,25 L126.722943,25 C127.427689,25 128,24.4588299 128,23.790431 L128,6.20956904 C128,5.54117015 127.427689,5 126.722943,5 L112.277057,5 C111.572311,5 111,5.54117015 111,6.20956904 L111,6.20956904 Z M125.669967,23.2608696 L113.330033,23.2608696 C112.982061,23.2608696 112.7,22.9992171 112.7,22.678424 L112.7,7.32157595 C112.7,6.99988681 112.982061,6.73913043 113.330033,6.73913043 L125.669967,6.73913043 C126.017939,6.73913043 126.3,6.99988681 126.3,7.32157595 L126.3,22.678424 C126.3,22.9992171 126.017939,23.2608696 125.669967,23.2608696 L125.669967,23.2608696 Z M123.75,11.0787211 C123.749124,11.5544387 123.400561,11.9565217 122.971425,11.9565217 L116.878575,11.9565217 C116.448563,11.9565217 116.1,11.5709095 116.1,11.095192 C116.1,10.6204433 116.448563,10.2173913 116.878575,10.2173913 L122.971425,10.2173913 C123.401437,10.2173913 123.75,10.6030035 123.75,11.0787211 Z M123.75,14.5565024 C123.749124,15.0319551 123.400561,15.4347826 122.971425,15.4347826 L116.878575,15.4347826 C116.448563,15.4347826 116.1,15.0493851 116.1,14.5739324 C116.1,14.0984797 116.448563,13.6956522 116.878575,13.6956522 L122.971425,13.6956522 C123.401437,13.6956522 123.75,14.082018 123.75,14.5565024 Z M122.9,18.0347632 C122.9,18.5102159 122.488443,18.9130435 121.981752,18.9130435 L117.019282,18.9130435 C116.511557,18.9130435 116.1,18.527646 116.1,18.0521933 C116.1,17.5767406 116.511557,17.173913 117.019282,17.173913 L121.981752,17.173913 C122.488443,17.173913 122.9,17.5593105 122.9,18.0347632 Z" id="text"></path>
                </g>
            </g>
        </g>
    </g>
</svg>