<?xml version="1.0" encoding="UTF-8"?>
<svg width="30px" height="34px" viewBox="0 0 30 34" version="1.1" xmlns="http://www.w3.org/2000/svg" xmlns:xlink="http://www.w3.org/1999/xlink">
    <!-- Generator: Sketch 42 (36781) - http://www.bohemiancoding.com/sketch -->
    <title>idcard</title>
    <desc>Created with Sketch.</desc>
    <defs></defs>
    <g id="timeline" stroke="none" stroke-width="1" fill="none" fill-rule="evenodd" opacity="0.800000012">
        <g id="Desktop-HD" transform="translate(-1522.000000, -60.000000)" fill="#231F1F">
            <g id="Group-4" transform="translate(-460.000000, -618.000000)">
                <g id="Group-3" transform="translate(1986.000000, 685.000000)">
                    <g id="Group">
                        <path d="M21.5050618,1 L1.4939079,1 C0.668652571,1 0,1.66101492 0,2.47684381 L0,16.5231562 C0,17.3389851 0.668652571,18 1.4939079,18 L21.5050618,18 C22.3303171,18 23,17.3389851 23,16.5231562 L23,2.47684381 C23,1.66101492 22.3303171,1 21.5050618,1 L21.5050618,1 Z M9.04896076,14.6755737 L6.75658484,14.6755737 L4.4652392,14.6755737 C3.94494714,14.6755737 3.17326644,14.4565934 3.17326644,13.5898388 C3.17326644,12.1333653 5.49758108,12.5468816 5.49758108,11.0476305 C5.49758108,10.1218022 4.00161261,9.2682883 4.00161261,7.12024444 C4.00161261,5.30627284 5.22764738,4.26433407 6.75658484,4.26433407 C8.28655259,4.26433407 9.51155707,5.30627284 9.51155707,7.12024444 C9.51155707,9.2682883 8.01661889,10.1218022 8.01661889,11.0476305 C8.01661889,12.5468816 10.3409335,12.1333653 10.3409335,13.5898388 C10.3409335,14.4565934 9.56822254,14.6755737 9.04896076,14.6755737 L9.04896076,14.6755737 Z M19.700009,13.5755797 C19.700009,14.0267809 19.330138,14.3924271 18.8737233,14.3924271 L13.5935316,14.3924271 C13.137117,14.3924271 12.7662157,14.0267809 12.7662157,13.5755797 L12.7662157,13.363729 C12.7662157,12.9125277 13.137117,12.5468816 13.5935316,12.5468816 L18.8737233,12.5468816 C19.330138,12.5468816 19.700009,12.9125277 19.700009,13.363729 L19.700009,13.5755797 L19.700009,13.5755797 Z M19.700009,9.676712 C19.700009,10.1279132 19.330138,10.4935594 18.8737233,10.4935594 L13.5935316,10.4935594 C13.137117,10.4935594 12.7662157,10.1279132 12.7662157,9.676712 L12.7662157,9.4648613 C12.7662157,9.01366006 13.137117,8.6480139 13.5935316,8.6480139 L18.8737233,8.6480139 C19.330138,8.6480139 19.700009,9.01366006 19.700009,9.4648613 L19.700009,9.676712 L19.700009,9.676712 Z M19.700009,5.76765922 C19.700009,6.21886046 19.330138,6.58348811 18.8737233,6.58348811 L13.5935316,6.58348811 C13.137117,6.58348811 12.7662157,6.21886046 12.7662157,5.76765922 L12.7662157,5.55479001 C12.7662157,5.10358876 13.137117,4.7379426 13.5935316,4.7379426 L18.8737233,4.7379426 C19.330138,4.7379426 19.700009,5.10358876 19.700009,5.55479001 L19.700009,5.76765922 L19.700009,5.76765922 Z" id="idcard"></path>
                    </g>
                </g>
            </g>
        </g>
    </g>
</svg>