<?xml version="1.0" encoding="UTF-8"?>
<svg width="33px" height="33px" viewBox="0 0 33 33" version="1.1" xmlns="http://www.w3.org/2000/svg" xmlns:xlink="http://www.w3.org/1999/xlink">
    <!-- Generator: Sketch 41 (35326) - http://www.bohemiancoding.com/sketch -->
    <title>Rectangle 40</title>
    <desc>Created with Sketch.</desc>
    <defs>
        <linearGradient x1="7.03320018%" y1="21.3942132%" x2="100%" y2="100%" id="linearGradient-1">
            <stop stop-color="#6A79D9" offset="0%"></stop>
            <stop stop-color="#53A0FE" offset="39.2857143%"></stop>
            <stop stop-color="#B4ED50" offset="100%"></stop>
        </linearGradient>
    </defs>
    <g id="Page-3" stroke="none" stroke-width="1" fill="none" fill-rule="evenodd">
        <g id="002-space" transform="translate(-58.000000, -53.000000)">
            <g id="Oval-1-+-Bitmap" transform="translate(58.000000, 53.000000)">
                <circle id="Mask" fill="url(#linearGradient-1)" cx="16.5" cy="16.5" r="16.5"></circle>
                <path d="M18.1587271,21.2902058 C17.7615897,21.6222387 17.2309961,21.7882527 16.5669303,21.7882527 C16.0591152,21.7882527 15.6229217,21.6808319 15.2583365,21.465987 C14.8872409,21.2836945 14.5877647,21.0460666 14.359899,20.7530964 C14.0799497,20.4471053 13.8944047,20.0467187 13.8032584,19.5519245 C13.6990912,19.0571304 13.6470084,18.1098742 13.6470084,16.7101277 C13.6470084,15.3103811 13.6990912,14.3566146 13.8032584,13.8487995 C13.8944047,13.3670263 14.0799497,12.97315 14.359899,12.6671589 C14.5877647,12.3741887 14.8872409,12.1300505 15.2583365,11.934737 C15.6229217,11.745934 16.0591152,11.6450236 16.5669303,11.6320027 C17.0812557,11.6450236 17.5272148,11.745934 17.9048209,11.934737 C18.2628956,12.1300505 18.5493511,12.3741887 18.7641959,12.6671589 C19.0441452,12.97315 19.2362006,13.3670263 19.3403678,13.8487995 C19.4380245,14.3566146 19.4868521,15.3103811 19.4868521,16.7101277 C19.4868521,18.2140414 19.4184934,19.2068701 19.281774,19.6886433 L17.6216178,18.3702839 L16.3423209,19.8448933 L18.1587271,21.2902058 Z M19.9263053,22.7062214 L21.7231803,24.1515339 L23.0024771,22.6671589 L21.1274771,21.1730183 C21.3227906,20.8474958 21.4627632,20.3917712 21.547399,19.8058308 C21.6125035,19.2198904 21.6450553,18.1879996 21.6450553,16.7101277 C21.6450553,15.0564736 21.602738,13.9497138 21.5181021,13.3898152 C21.4269558,12.8299165 21.2609419,12.3774471 21.0200553,12.0323933 C20.6880223,11.3748379 20.1476632,10.7889063 19.3989615,10.2745808 C18.6437494,9.75374486 17.6997484,9.48682044 16.5669303,9.47379954 C15.447133,9.48682044 14.5128975,9.75374486 13.7641959,10.2745808 C13.0024733,10.7889063 12.4490934,11.3748379 12.1040396,12.0323933 C11.8891948,12.3774471 11.7296912,12.8299165 11.625524,13.3898152 C11.5278673,13.9497138 11.4790396,15.0564736 11.4790396,16.7101277 C11.4790396,18.33774 11.5278673,19.4379894 11.625524,20.0109089 C11.6776076,20.3169 11.7427111,20.5708037 11.8208365,20.7726277 C11.9054723,20.9679411 11.9998724,21.1730172 12.1040396,21.387862 C12.4490934,22.0454174 13.0024733,22.6248387 13.7641959,23.1261433 C14.5128975,23.6469792 15.447133,23.920414 16.5669303,23.9464558 C17.9666768,23.920414 19.0864573,23.5070067 19.9263053,22.7062214 Z" id="Q-Copy" fill="#FFFFFF"></path>
            </g>
        </g>
    </g>
</svg>