<?xml version="1.0" encoding="UTF-8"?>
<svg width="2287px" height="367px" viewBox="0 0 2287 367" version="1.1" xmlns="http://www.w3.org/2000/svg" xmlns:xlink="http://www.w3.org/1999/xlink">
    <!-- Generator: Sketch 42 (36781) - http://www.bohemiancoding.com/sketch -->
    <title>DIS COMMUNUCATION</title>
    <desc>Created with Sketch.</desc>
    <defs></defs>
    <g id="Page-3" stroke="none" stroke-width="1" fill="none" fill-rule="evenodd">
        <g id="Artboard" transform="translate(-78.000000, -81.000000)" fill="#F2F2F2">
            <path d="M86.336,262 L86.336,84.2 L155.678,84.2 C211.558,84.2 250.166,122.554 250.166,172.592 L250.166,173.1 C250.166,223.138 211.558,262 155.678,262 L86.336,262 Z M125.452,226.694 L155.678,226.694 C187.682,226.694 209.272,205.104 209.272,173.608 L209.272,173.1 C209.272,141.604 187.682,119.506 155.678,119.506 L125.452,119.506 L125.452,226.694 Z M275.502634,262 L314.618634,262 L314.618634,84.2 L275.502634,84.2 L275.502634,262 Z M411.075269,264.54 C384.151269,264.54 356.973269,255.142 335.637269,236.092 L358.751269,208.406 C374.753269,221.614 391.517269,229.996 411.837269,229.996 C427.839269,229.996 437.491269,223.646 437.491269,213.232 L437.491269,212.724 C437.491269,202.818 431.395269,197.738 401.677269,190.118 C365.863269,180.974 342.749269,171.068 342.749269,135.762 L342.749269,135.254 C342.749269,102.996 368.657269,81.66 404.979269,81.66 C430.887269,81.66 452.985269,89.788 471.019269,104.266 L450.699269,133.73 C434.951269,122.808 419.457269,116.204 404.471269,116.204 C389.485269,116.204 381.611269,123.062 381.611269,131.698 L381.611269,132.206 C381.611269,143.89 389.231269,147.7 419.965269,155.574 C456.033269,164.972 476.353269,177.926 476.353269,208.914 L476.353269,209.422 C476.353269,244.728 449.429269,264.54 411.075269,264.54 Z M169.648,447.048 C203.938,447.048 224.258,434.856 242.546,415.298 L217.654,390.152 C203.684,402.852 191.238,410.98 170.918,410.98 C140.438,410.98 119.356,385.58 119.356,355.1 L119.356,354.592 C119.356,324.112 140.946,299.22 170.918,299.22 C188.698,299.22 202.668,306.84 216.384,319.286 L241.276,290.584 C224.766,274.328 204.7,263.152 171.172,263.152 C116.562,263.152 78.462,304.554 78.462,355.1 L78.462,355.608 C78.462,406.662 117.324,447.048 169.648,447.048 Z M343.828634,447.048 C288.964634,447.048 249.594634,406.154 249.594634,355.608 L249.594634,355.1 C249.594634,304.554 289.472634,263.152 344.336634,263.152 C399.200634,263.152 438.570634,304.046 438.570634,354.592 L438.570634,355.1 C438.570634,405.646 398.692634,447.048 343.828634,447.048 Z M344.336634,410.98 C375.832634,410.98 397.676634,386.088 397.676634,355.608 L397.676634,355.1 C397.676634,324.62 375.324634,299.22 343.828634,299.22 C312.332634,299.22 290.488634,324.112 290.488634,354.592 L290.488634,355.1 C290.488634,385.58 312.840634,410.98 344.336634,410.98 Z M462.129269,444 L500.483269,444 L500.483269,328.684 L550.013269,403.868 L551.029269,403.868 L601.067269,327.922 L601.067269,444 L639.929269,444 L639.929269,266.2 L597.765269,266.2 L551.029269,341.384 L504.293269,266.2 L462.129269,266.2 L462.129269,444 Z M671.361903,444 L709.715903,444 L709.715903,328.684 L759.245903,403.868 L760.261903,403.868 L810.299903,327.922 L810.299903,444 L849.161903,444 L849.161903,266.2 L806.997903,266.2 L760.261903,341.384 L713.525903,266.2 L671.361903,266.2 L671.361903,444 Z M954.762538,446.794 C1002.51454,446.794 1032.74054,420.378 1032.74054,366.53 L1032.74054,266.2 L993.624538,266.2 L993.624538,368.054 C993.624538,396.248 979.146538,410.726 955.270538,410.726 C931.394538,410.726 916.916538,395.74 916.916538,366.784 L916.916538,266.2 L877.800538,266.2 L877.800538,367.8 C877.800538,420.124 907.010538,446.794 954.762538,446.794 Z M1061.37917,444 L1099.98717,444 L1099.98717,330.97 L1186.09317,444 L1219.36717,444 L1219.36717,266.2 L1180.75917,266.2 L1180.75917,375.674 L1097.44717,266.2 L1061.37917,266.2 L1061.37917,444 Z M1324.96781,446.794 C1372.71981,446.794 1402.94581,420.378 1402.94581,366.53 L1402.94581,266.2 L1363.82981,266.2 L1363.82981,368.054 C1363.82981,396.248 1349.35181,410.726 1325.47581,410.726 C1301.59981,410.726 1287.12181,395.74 1287.12181,366.784 L1287.12181,266.2 L1248.00581,266.2 L1248.00581,367.8 C1248.00581,420.124 1277.21581,446.794 1324.96781,446.794 Z M1514.89644,447.048 C1549.18644,447.048 1569.50644,434.856 1587.79444,415.298 L1562.90244,390.152 C1548.93244,402.852 1536.48644,410.98 1516.16644,410.98 C1485.68644,410.98 1464.60444,385.58 1464.60444,355.1 L1464.60444,354.592 C1464.60444,324.112 1486.19444,299.22 1516.16644,299.22 C1533.94644,299.22 1547.91644,306.84 1561.63244,319.286 L1586.52444,290.584 C1570.01444,274.328 1549.94844,263.152 1516.42044,263.152 C1461.81044,263.152 1423.71044,304.554 1423.71044,355.1 L1423.71044,355.608 C1423.71044,406.662 1462.57244,447.048 1514.89644,447.048 Z M1592.55708,444 L1668.75708,264.93 L1704.82508,264.93 L1781.02508,444 L1740.13108,444 L1723.87508,404.122 L1648.69108,404.122 L1632.43508,444 L1592.55708,444 Z M1662.66108,369.578 L1709.90508,369.578 L1686.28308,311.92 L1662.66108,369.578 Z M1815.75971,444 L1815.75971,302.268 L1761.65771,302.268 L1761.65771,266.2 L1908.97771,266.2 L1908.97771,302.268 L1854.87571,302.268 L1854.87571,444 L1815.75971,444 Z M1929.48834,444 L1968.60434,444 L1968.60434,266.2 L1929.48834,266.2 L1929.48834,444 Z M2088.17498,447.048 C2033.31098,447.048 1993.94098,406.154 1993.94098,355.608 L1993.94098,355.1 C1993.94098,304.554 2033.81898,263.152 2088.68298,263.152 C2143.54698,263.152 2182.91698,304.046 2182.91698,354.592 L2182.91698,355.1 C2182.91698,405.646 2143.03898,447.048 2088.17498,447.048 Z M2088.68298,410.98 C2120.17898,410.98 2142.02298,386.088 2142.02298,355.608 L2142.02298,355.1 C2142.02298,324.62 2119.67098,299.22 2088.17498,299.22 C2056.67898,299.22 2034.83498,324.112 2034.83498,354.592 L2034.83498,355.1 C2034.83498,385.58 2057.18698,410.98 2088.68298,410.98 Z M2206.47561,444 L2245.08361,444 L2245.08361,330.97 L2331.18961,444 L2364.46361,444 L2364.46361,266.2 L2325.85561,266.2 L2325.85561,375.674 L2242.54361,266.2 L2206.47561,266.2 L2206.47561,444 Z" id="DIS-COMMUNUCATION"></path>
        </g>
    </g>
</svg>