<?xml version="1.0" encoding="UTF-8" standalone="no"?>
<svg width="37px" height="37px" viewBox="0 0 37 37" version="1.1" xmlns="http://www.w3.org/2000/svg" xmlns:xlink="http://www.w3.org/1999/xlink" xmlns:sketch="http://www.bohemiancoding.com/sketch/ns">
    <!-- Generator: Sketch 3.3.3 (12072) - http://www.bohemiancoding.com/sketch -->
    <title>Twitter</title>
    <desc>Created with Sketch.</desc>
    <defs></defs>
    <g id="Page-1" stroke="none" stroke-width="1" fill="none" fill-rule="evenodd" sketch:type="MSPage">
        <g id="Desktop-HD" sketch:type="MSArtboardGroup" transform="translate(-370.000000, -393.000000)" fill="#64ACFF">
            <g id="Behance-+-Twitter-+-Facebook" sketch:type="MSLayerGroup" transform="translate(369.500000, 393.000000)">
                <g id="Twitter-+-icon_Twitter" sketch:type="MSShapeGroup">
                    <path d="M37,18.7600452 C37,28.7010452 28.941,36.7600452 19,36.7600452 C9.059,36.7600452 1,28.7010452 1,18.7600452 C1,8.81904517 9.059,0.760045168 19,0.760045168 C28.941,0.760045168 37,8.81904517 37,18.7600452 L37,18.7600452 Z M27.302,13.9720452 C26.734,14.2240452 26.124,14.3940452 25.483,14.4710452 C26.137,14.0790452 26.64,13.4580452 26.876,12.7180452 C26.264,13.0810452 25.586,13.3450452 24.865,13.4870452 C24.287,12.8710452 23.464,12.4870452 22.553,12.4870452 C20.803,12.4870452 19.385,13.9050452 19.385,15.6540452 C19.385,15.9020452 19.413,16.1440452 19.467,16.3760452 C16.835,16.2440452 14.501,14.9830452 12.939,13.0670452 C12.667,13.5340452 12.51,14.0780452 12.51,14.6590452 C12.51,15.7580452 13.069,16.7270452 13.919,17.2950452 C13.4,17.2790452 12.912,17.1360452 12.485,16.8990452 C12.484,16.9120452 12.484,16.9250452 12.484,16.9390452 C12.484,18.4730452 13.576,19.7540452 15.025,20.0440452 C14.759,20.1170452 14.479,20.1560452 14.191,20.1560452 C13.986,20.1560452 13.788,20.1360452 13.595,20.0990452 C13.998,21.3570452 15.167,22.2730452 16.553,22.2980452 C15.469,23.1480452 14.104,23.6540452 12.62,23.6540452 C12.364,23.6540452 12.112,23.6390452 11.864,23.6100452 C13.266,24.5080452 14.931,25.0330452 16.72,25.0330452 C22.545,25.0330452 25.731,20.2070452 25.731,16.0210452 C25.731,15.8840452 25.728,15.7470452 25.722,15.6110452 C26.341,15.1650452 26.878,14.6070452 27.302,13.9720452 L27.302,13.9720452 Z" id="Twitter"></path>
                </g>
            </g>
        </g>
    </g>
</svg>