<?xml version="1.0" encoding="UTF-8" standalone="no"?>
<svg width="37px" height="37px" viewBox="0 0 37 37" version="1.1" xmlns="http://www.w3.org/2000/svg" xmlns:xlink="http://www.w3.org/1999/xlink" xmlns:sketch="http://www.bohemiancoding.com/sketch/ns">
    <!-- Generator: Sketch 3.3.3 (12072) - http://www.bohemiancoding.com/sketch -->
    <title>Facebook</title>
    <desc>Created with Sketch.</desc>
    <defs></defs>
    <g id="Page-1" stroke="none" stroke-width="1" fill="none" fill-rule="evenodd" sketch:type="MSPage">
        <g id="Desktop-HD" sketch:type="MSArtboardGroup" transform="translate(-411.000000, -393.000000)" fill="#2B42D5">
            <g id="Behance-+-Twitter-+-Facebook" sketch:type="MSLayerGroup" transform="translate(369.500000, 393.000000)">
                <g id="Facebook-+-icon_Facebook" transform="translate(42.000000, 0.000000)" sketch:type="MSShapeGroup">
                    <path d="M36,18.7600452 C36,28.7010452 27.941,36.7600452 18,36.7600452 C8.059,36.7600452 0,28.7010452 0,18.7600452 C0,8.81904517 8.059,0.760045168 18,0.760045168 C27.941,0.760045168 36,8.81904517 36,18.7600452 L36,18.7600452 Z M19.083,18.7600452 L21.024,18.7600452 L21.282,16.3350452 L19.083,16.3350452 L19.086,15.1220452 C19.086,14.4900452 19.146,14.1510452 20.055,14.1510452 L21.268,14.1510452 L21.268,11.7260452 L19.326,11.7260452 C16.994,11.7260452 16.172,12.9030452 16.172,14.8800452 L16.172,16.3350452 L14.718,16.3350452 L14.718,18.7600452 L16.172,18.7600452 L16.172,25.7940452 L19.083,25.7940452 L19.083,18.7600452 L19.083,18.7600452 Z" id="Facebook"></path>
                </g>
            </g>
        </g>
    </g>
</svg>