<?xml version="1.0" encoding="UTF-8" standalone="no"?>
<svg width="363px" height="649px" viewBox="0 0 363 649" version="1.1" xmlns="http://www.w3.org/2000/svg" xmlns:xlink="http://www.w3.org/1999/xlink" xmlns:sketch="http://www.bohemiancoding.com/sketch/ns">
    <!-- Generator: Sketch 3.3.2 (12043) - http://www.bohemiancoding.com/sketch -->
    <title>base</title>
    <desc>Created with Sketch.</desc>
    <defs>
        <path id="path-1" d="M5.34107004,544.750857 C-9.74766502,584.058356 9.87322503,628.150496 49.1848562,643.240817 C88.4878457,658.327821 132.581026,638.693295 147.669786,599.385732 C147.669786,599.385732 328.999988,122 334.642698,110.97922 C348.999988,103 357.999988,99.0000005 360.999988,92.0000005 C369.482458,71.0051509 341.227731,40.0330791 287.460433,18.3096807 C233.693135,-3.4137177 185.912136,-7.39359358 184.000004,18.3096801 C182.53519,37.9999992 190.000004,42.0000002 193.393021,56.3163893 C195.033462,58.4509739 5.34107004,544.750857 5.34107004,544.750857 Z"></path>
        <path id="path-3" d="M1.34107004,538.750857 C-13.747665,578.058356 5.87322503,622.150496 45.1848562,637.240817 C84.4878457,652.327821 128.581026,632.693295 143.669786,593.385732 C143.669786,593.385732 324.999988,116 330.642698,104.97922 C344.999988,97.0000001 353.999988,93.0000005 356.999988,86.0000005 C365.482458,65.0051509 337.227731,34.0330791 283.460433,12.3096807 C229.693135,-9.4137177 181.912136,-13.3935936 180.000004,12.3096801 C178.53519,31.9999992 186.000004,36.0000002 189.393021,50.3163893 C191.033462,52.4509739 1.34107004,538.750857 1.34107004,538.750857 Z"></path>
        <filter x="-50%" y="-50%" width="200%" height="200%" filterUnits="objectBoundingBox" id="filter-4">
            <feOffset dx="-3" dy="0" in="SourceAlpha" result="shadowOffsetInner1"></feOffset>
            <feGaussianBlur stdDeviation="2" in="shadowOffsetInner1" result="shadowBlurInner1"></feGaussianBlur>
            <feComposite in="shadowBlurInner1" in2="SourceAlpha" operator="arithmetic" k2="-1" k3="1" result="shadowInnerInner1"></feComposite>
            <feColorMatrix values="0 0 0 0 0   0 0 0 0 0   0 0 0 0 0  0 0 0 0.042 0" in="shadowInnerInner1" type="matrix" result="shadowMatrixInner1"></feColorMatrix>
            <feMerge>
                <feMergeNode in="SourceGraphic"></feMergeNode>
                <feMergeNode in="shadowMatrixInner1"></feMergeNode>
            </feMerge>
        </filter>
        <linearGradient x1="100%" y1="51.3320029%" x2="-41.4133943%" y2="50%" id="linearGradient-5">
            <stop stop-color="#E90388" offset="0%"></stop>
            <stop stop-color="#A10961" offset="38.5364588%"></stop>
            <stop stop-color="#861657" offset="70.7170759%"></stop>
            <stop stop-color="#3E102B" offset="100%"></stop>
        </linearGradient>
    </defs>
    <g id="Page-1" stroke="none" stroke-width="1" fill="none" fill-rule="evenodd" sketch:type="MSPage">
        <g id="Jekyll" sketch:type="MSArtboardGroup" transform="translate(-139.000000, -269.000000)">
            <g id="jekyll" sketch:type="MSLayerGroup" transform="translate(137.000000, 269.000000)">
                <g id="base-+-base-copy" transform="translate(2.000000, 0.000000)">
                    <mask id="mask-2" sketch:name="Mask" fill="white">
                        <use xlink:href="#path-1"></use>
                    </mask>
                    <use id="Mask" fill="#E0E0E0" sketch:type="MSShapeGroup" xlink:href="#path-1"></use>
                    <g id="base-copy">
                        <use fill="none" sketch:type="MSShapeGroup" mask="url(#mask-2)" xlink:href="#path-3"></use>
                        <use fill="#E6E6E6" fill-rule="evenodd" xlink:href="#path-3"></use>
                    </g>
                </g>
                <path d="M270.068068,65.0930104 C301.156862,77.6536983 329.065301,81.1385805 332.403312,72.8767126 C335.741324,64.6148447 313.24487,47.734828 282.156076,35.1741401 C251.067283,22.6134523 223.158844,19.1285701 219.820832,27.390438 C216.482821,35.6523059 238.979275,52.5323226 270.068068,65.0930104 Z" id="black-circle" fill-opacity="0.200000003" fill="#333333" filter="url(#filter-4)" sketch:type="MSShapeGroup"></path>
                <path d="M138.600949,251.623208 C99.6409174,271.267241 88.2528406,299.331723 88.2528406,342.050467 C88.2528406,356.695578 88.2528405,580.171568 88.2528405,580.171568 C88.2528405,609.705937 112.187973,633.648274 141.727958,633.648274 L141.727958,633.648274 C171.26145,633.648274 195.203076,609.700513 195.203077,580.172655 L195.20308,174.332266 C185.632994,199.645331 177.56098,231.979174 138.600949,251.623208 Z" id="liquid" fill="url(#linearGradient-5)" sketch:type="MSShapeGroup" transform="translate(141.727960, 403.990270) rotate(21.000000) translate(-141.727960, -403.990270) "></path>
                <path d="M84.9401245,648.048146 C66.1403343,632.265438 50.9093625,607.806792 59,579 C70.4808971,538.122156 244,89 244,89 C244,89 200,70 187,33 C186.96062,33 186.91555,33.015977 186.864844,33.0477638 C188.830168,41.5391521 193.067753,46.5052271 195.393021,56.3163893 C197.033462,58.4509739 7.34107004,544.750857 7.34107004,544.750857 C-11.9999999,580.000008 11.873225,628.150496 51.1848562,643.240817 C62.308291,647.510704 73.815415,648.999433 84.9401245,648.048146 Z" id="gloss" fill-opacity="0.400000006" fill="#FFFFFF" sketch:type="MSShapeGroup"></path>
                <g id="bubbles" transform="translate(81.000000, 334.000000)" fill="#FFFFFF" sketch:type="MSShapeGroup" fill-opacity="0.5">
                    <path d="M37,120 C48.045695,120 57,111.045695 57,100 C57,88.954305 48.045695,80 37,80 C25.954305,80 17,88.954305 17,100 C17,111.045695 25.954305,120 37,120 Z" id="Oval-2"></path>
                    <circle id="Oval-2" cx="92.5" cy="51.5" r="10.5"></circle>
                    <circle id="Oval-2" cx="9" cy="130" r="9"></circle>
                    <circle id="Oval-2" cx="55.5" cy="7.5" r="7.5"></circle>
                    <circle id="Oval-2" cx="44.5" cy="192.5" r="7.5"></circle>
                </g>
            </g>
        </g>
    </g>
</svg>